<?xml version="1.0" encoding="utf-8"?>
<!-- Generator: Adobe Illustrator 19.1.0, SVG Export Plug-In . SVG Version: 6.00 Build 0)  -->
<svg version="1.1" id="Layer_1" xmlns="http://www.w3.org/2000/svg" xmlns:xlink="http://www.w3.org/1999/xlink" x="0px" y="0px" viewBox="0 0 80.9 81.8" style="enable-background:new 0 0 80.9 81.8;" xml:space="preserve">
  <style type="text/css">
	.st0{fill-rule:evenodd;clip-rule:evenodd;fill:#3C6573;}
	.st1{fill-rule:evenodd;clip-rule:evenodd;fill:#FFFFFF;}
	.st2{fill-rule:evenodd;clip-rule:evenodd;fill:none;}
</style>
  <path class="st0" d="M13.7,27.9c0.4-0.5,0.8-0.9,1.2-1.4c0.5-0.6,1-1.2,1.6-1.7c2-2,4.2-3.7,6.6-5.2v-0.6c0-1.3-1.1-2.4-2.4-2.4
	h-2.6c-0.5,0-0.9,0.2-1.2,0.6l-3.9,5.5l-0.9-2l1.5-3.2c0.2-0.4-0.1-0.9-0.6-0.9h-3c-0.5,0-0.8,0.5-0.6,0.9l1.5,3.2L10,22.7l-3.8-5.4
	c-0.3-0.4-0.7-0.6-1.2-0.6H2.4c-1.3,0-2.4,1.1-2.4,2.4v15.7h9.5C10.7,32.3,12,30,13.7,27.9z" />
  <path class="st0" d="M3.9,7.6c0,4.2,3.4,7.6,7.6,7.6c4.2,0,7.6-3.4,7.6-7.6c0-4.2-3.4-7.6-7.6-7.6C7.3,0,3.9,3.4,3.9,7.6z" />
  <path class="st0" d="M75.5,16.7c-0.5,0-0.9,0.2-1.2,0.6l-3.9,5.5l-0.9-2l1.5-3.2c0.2-0.4-0.1-0.9-0.6-0.9h-3c-0.5,0-0.8,0.5-0.6,0.9
	l1.5,3.2l-0.9,1.9l-3.8-5.4c-0.3-0.4-0.7-0.6-1.2-0.6h-2.8c-1.3,0-2.4,1.1-2.4,2.4v0.6c2.4,1.4,4.6,3.1,6.6,5.1
	c0.6,0.6,1.1,1.2,1.7,1.8c0.4,0.4,0.7,0.9,1.1,1.3c1.6,2.1,3,4.4,4.1,6.9h9.6V19.1c0-1.3-1.1-2.4-2.4-2.4H75.5z" />
  <path class="st0" d="M61.4,7.6c0,4.2,3.4,7.6,7.6,7.6c4.2,0,7.6-3.4,7.6-7.6C76.5,3.4,73.1,0,69,0C64.8,0,61.4,3.4,61.4,7.6z" />
  <path class="st0" d="M79.3,74.2l-10.4-8c-1.4,2.2-3,4.3-4.9,6.1c-0.2,0.2-0.3,0.3-0.5,0.5l10.6,8.1c0.8,0.6,1.7,0.9,2.6,0.9
	c1.3,0,2.5-0.6,3.4-1.7C81.5,78.3,81.1,75.6,79.3,74.2z" />
  <path class="st1" d="M51.8,48.4c0-1.3-1.1-2.4-2.4-2.4h-2.6c-0.5,0-0.9,0.2-1.2,0.6l-3.9,5.5l-0.9-2l1.5-3.2
	c0.2-0.4-0.1-0.9-0.6-0.9h-3c-0.5,0-0.8,0.5-0.6,0.9l1.5,3.2l-0.9,2L35,46.7c-0.3-0.4-0.7-0.6-1.2-0.6h-2.8c-1.3,0-2.4,1.1-2.4,2.4
	v15.7h23.1L51.8,48.4L51.8,48.4z" />
  <path class="st1" d="M40.2,44.6c4.2,0,7.6-3.4,7.6-7.6s-3.4-7.6-7.6-7.6c-4.2,0-7.6,3.4-7.6,7.6S36.1,44.6,40.2,44.6z" />
  <path class="st0" d="M22.6,34.7c0.2-0.2,0.3-0.4,0.5-0.6c0.4-0.5,0.8-0.9,1.3-1.4c4.2-4.2,9.9-6.6,15.9-6.6c6,0,11.6,2.3,15.8,6.6
	c0.5,0.5,0.9,1,1.4,1.5c0.1,0.2,0.3,0.3,0.4,0.5c3.1,3.9,4.8,8.8,4.8,13.8c0,6-2.3,11.6-6.6,15.9c-4.2,4.2-9.9,6.6-15.8,6.6
	c-6,0-11.6-2.3-15.8-6.6c-4.2-4.2-6.6-9.9-6.6-15.9C17.8,43.5,19.5,38.7,22.6,34.7z M27.9,77.6c3.9,1.6,8,2.5,12.3,2.5
	c4.3,0,8.4-0.8,12.3-2.5c3.5-1.5,6.6-3.5,9.3-6.1c0.2-0.2,0.5-0.4,0.7-0.7c1.8-1.8,3.4-3.8,4.7-5.9c0.8-1.3,1.5-2.7,2.1-4.1
	c1.6-3.9,2.5-8,2.5-12.3c0-4.2-0.8-8.4-2.5-12.3c-0.2-0.5-0.5-1.1-0.7-1.6c-1.5-3.1-3.6-6-6-8.5c-1.6-1.6-3.2-2.9-5.1-4.1
	c-1.6-1-3.2-1.9-5-2.6c-3.9-1.6-8-2.5-12.3-2.5c-4.3,0-8.4,0.8-12.3,2.5c-1.7,0.7-3.3,1.6-4.9,2.6c-1.8,1.2-3.6,2.6-5.1,4.2
	c-2.5,2.5-4.5,5.3-6,8.5c-0.2,0.5-0.5,1-0.7,1.6c-1.6,3.9-2.5,8-2.5,12.3s0.8,8.4,2.5,12.3c1.6,3.8,3.9,7.1,6.8,10
	C20.8,73.7,24.2,76,27.9,77.6z" />
  <path class="st0" d="M13.7,27.9c0.4-0.5,0.8-0.9,1.2-1.4c0.5-0.6,1-1.2,1.6-1.7c2-2,4.2-3.7,6.6-5.2v-0.6c0-1.3-1.1-2.4-2.4-2.4
	h-2.6c-0.5,0-0.9,0.2-1.2,0.6l-3.9,5.5l-0.9-2l1.5-3.2c0.2-0.4-0.1-0.9-0.6-0.9h-3c-0.5,0-0.8,0.5-0.6,0.9l1.5,3.2L10,22.7l-3.8-5.4
	c-0.3-0.4-0.7-0.6-1.2-0.6H2.4c-1.3,0-2.4,1.1-2.4,2.4v15.7h9.5C10.7,32.3,12,30,13.7,27.9z" />
  <path class="st0" d="M3.9,7.6c0,4.2,3.4,7.6,7.6,7.6c4.2,0,7.6-3.4,7.6-7.6c0-4.2-3.4-7.6-7.6-7.6C7.3,0,3.9,3.4,3.9,7.6z" />
  <path class="st0" d="M75.5,16.7c-0.5,0-0.9,0.2-1.2,0.6l-3.9,5.5l-0.9-2l1.5-3.2c0.2-0.4-0.1-0.9-0.6-0.9h-3c-0.5,0-0.8,0.5-0.6,0.9
	l1.5,3.2l-0.9,1.9l-3.8-5.4c-0.3-0.4-0.7-0.6-1.2-0.6h-2.8c-1.3,0-2.4,1.1-2.4,2.4v0.6c2.4,1.4,4.6,3.1,6.6,5.1
	c0.6,0.6,1.1,1.2,1.7,1.8c0.4,0.4,0.7,0.9,1.1,1.3c1.6,2.1,3,4.4,4.1,6.9h9.6V19.1c0-1.3-1.1-2.4-2.4-2.4H75.5z" />
  <path class="st0" d="M61.4,7.6c0,4.2,3.4,7.6,7.6,7.6c4.2,0,7.6-3.4,7.6-7.6C76.5,3.4,73.1,0,69,0C64.8,0,61.4,3.4,61.4,7.6z" />
  <path class="st0" d="M79.3,74.2l-10.4-8c-1.4,2.2-3,4.3-4.9,6.1c-0.2,0.2-0.3,0.3-0.5,0.5l10.6,8.1c0.8,0.6,1.7,0.9,2.6,0.9
	c1.3,0,2.5-0.6,3.4-1.7C81.5,78.3,81.1,75.6,79.3,74.2z" />
  <path class="st2" d="M51.8,48.4c0-1.3-1.1-2.4-2.4-2.4h-2.6c-0.5,0-0.9,0.2-1.2,0.6l-3.9,5.5l-0.9-2l1.5-3.2
	c0.2-0.4-0.1-0.9-0.6-0.9h-3c-0.5,0-0.8,0.5-0.6,0.9l1.5,3.2l-0.9,2L35,46.7c-0.3-0.4-0.7-0.6-1.2-0.6h-2.8c-1.3,0-2.4,1.1-2.4,2.4
	v15.7h23.1L51.8,48.4L51.8,48.4z" />
  <path class="st2" d="M40.2,44.6c4.2,0,7.6-3.4,7.6-7.6s-3.4-7.6-7.6-7.6c-4.2,0-7.6,3.4-7.6,7.6S36.1,44.6,40.2,44.6z" />
  <path class="st2" d="M22.6,34.7c0.2-0.2,0.3-0.4,0.5-0.6c0.4-0.5,0.8-0.9,1.3-1.4c4.2-4.2,9.9-6.6,15.9-6.6c6,0,11.6,2.3,15.8,6.6
	c0.5,0.5,0.9,1,1.4,1.5c0.1,0.2,0.3,0.3,0.4,0.5c3.1,3.9,4.8,8.8,4.8,13.8c0,6-2.3,11.6-6.6,15.9c-4.2,4.2-9.9,6.6-15.8,6.6
	c-6,0-11.6-2.3-15.8-6.6c-4.2-4.2-6.6-9.9-6.6-15.9C17.8,43.5,19.5,38.7,22.6,34.7z M27.9,77.6c3.9,1.6,8,2.5,12.3,2.5
	c4.3,0,8.4-0.8,12.3-2.5c3.5-1.5,6.6-3.5,9.3-6.1c0.2-0.2,0.5-0.4,0.7-0.7c1.8-1.8,3.4-3.8,4.7-5.9c0.8-1.3,1.5-2.7,2.1-4.1
	c1.6-3.9,2.5-8,2.5-12.3c0-4.2-0.8-8.4-2.5-12.3c-0.2-0.5-0.5-1.1-0.7-1.6c-1.5-3.1-3.6-6-6-8.5c-1.6-1.6-3.2-2.9-5.1-4.1
	c-1.6-1-3.2-1.9-5-2.6c-3.9-1.6-8-2.5-12.3-2.5c-4.3,0-8.4,0.8-12.3,2.5c-1.7,0.7-3.3,1.6-4.9,2.6c-1.8,1.2-3.6,2.6-5.1,4.2
	c-2.5,2.5-4.5,5.3-6,8.5c-0.2,0.5-0.5,1-0.7,1.6c-1.6,3.9-2.5,8-2.5,12.3s0.8,8.4,2.5,12.3c1.6,3.8,3.9,7.1,6.8,10
	C20.8,73.7,24.2,76,27.9,77.6z" />
</svg>